<?xml version="1.0" encoding="UTF-8"?>
<!DOCTYPE svg PUBLIC "-//W3C//DTD SVG 1.1//EN" "http://www.w3.org/Graphics/SVG/1.1/DTD/svg11.dtd">
<!-- Creator: CorelDRAW X7 -->
<svg xmlns="http://www.w3.org/2000/svg" xml:space="preserve" width="7.13661in" height="1.984in" version="1.1" style="shape-rendering:geometricPrecision; text-rendering:geometricPrecision; image-rendering:optimizeQuality; fill-rule:evenodd; clip-rule:evenodd"
viewBox="0 0 7137 1984"
 xmlns:xlink="http://www.w3.org/1999/xlink">
 <defs>
  <style type="text/css">
   <![CDATA[
    .fil3 {fill:#333333}
    .fil0 {fill:#4D4D4D}
    .fil4 {fill:#B3B3B3}
    .fil1 {fill:#CCCCCC;fill-rule:nonzero}
    .fil5 {fill:url(#id0)}
    .fil2 {fill:url(#id1)}
   ]]>
  </style>
  <linearGradient id="id0" gradientUnits="userSpaceOnUse" x1="500.319" y1="807.071" x2="998.11" y2="807.071">
   <stop offset="0" style="stop-opacity:1; stop-color:#F38C25"/>
   <stop offset="1" style="stop-opacity:1; stop-color:#EE3E2F"/>
  </linearGradient>
  <linearGradient id="id1" gradientUnits="userSpaceOnUse" xlink:href="#id0" x1="355.874" y1="1621.61" x2="1268.39" y2="709.11">
  </linearGradient>
 </defs>
 <g id="Layer_x0020_1">
  <metadata id="CorelCorpID_0Corel-Layer"/>
  <g id="_571037880">
   <path class="fil0" d="M1763 215c3,75 6,235 9,309 1,180 3,272 4,452 0,265 -2,380 -2,645l-9 363c-3,-71 -6,-292 -9,-363 -1,-265 -4,-379 -6,-644 1,-179 3,-273 4,-452l9 -310z"/>
   <path class="fil1" d="M2337 1295c23,13 94,37 160,37 207,0 384,-134 384,-406 0,-222 -164,-405 -382,-405 -170,0 -259,122 -259,122l-23 -64c-8,-21 -21,-39 -40,-39l-91 0c-19,0 -37,18 -37,37l0 1278c0,19 18,36 37,36l214 0c19,0 37,-17 37,-36l0 -560zm-31 -367c0,-88 66,-158 154,-158 89,0 157,70 157,158 0,87 -68,155 -157,155 -88,0 -154,-68 -154,-155z"/>
   <path id="1" class="fil1" d="M2887 1276c0,19 17,36 36,36l197 0c31,0 43,-13 43,-36l0 -400c0,-65 44,-110 102,-110 17,0 37,6 46,10 21,8 35,-4 43,-18l94 -154c27,-44 -48,-83 -154,-83 -101,0 -172,71 -211,127l-34 -84c-6,-12 -14,-24 -35,-24l-91 0c-19,0 -36,16 -36,37l0 699z"/>
   <path id="2" class="fil1" d="M3338 924c0,222 181,408 401,408 220,0 402,-186 402,-408 0,-218 -182,-403 -402,-403 -220,0 -401,185 -401,403zm249 0c0,-84 67,-154 152,-154 85,0 153,70 153,154 0,87 -68,159 -153,159 -85,0 -152,-72 -152,-159z"/>
   <path id="3" class="fil1" d="M4142 1276c0,19 16,36 37,36l203 0c19,0 36,-17 36,-36l0 -371c0,-79 58,-135 135,-135 87,0 122,68 122,145l0 361c0,19 15,36 37,36l185 0c21,0 37,-17 37,-36l0 -375c0,-75 61,-131 129,-131 89,0 129,68 129,145l0 361c0,19 16,36 37,36l204 0c22,0 37,-17 37,-36l0 -350c0,-220 -118,-405 -357,-405 -131,0 -222,73 -266,118 -70,-77 -145,-118 -253,-118 -124,0 -212,70 -261,120l-32 -79c-6,-12 -20,-22 -33,-22l-89 0c-21,0 -37,16 -37,37l0 699z"/>
   <path id="4" class="fil1" d="M5653 307c85,0 155,-68 155,-153 0,-85 -70,-154 -155,-154 -85,0 -152,69 -152,154 0,85 67,153 152,153zm-141 969c0,19 18,36 37,36l212 0c20,0 37,-17 37,-36l0 -699c0,-21 -17,-37 -37,-37l-212 0c-19,0 -37,16 -37,37l0 699z"/>
   <path id="5" class="fil1" d="M5832 1268c39,31 135,64 263,64 218,0 326,-110 326,-245 0,-155 -108,-217 -264,-271 -66,-23 -87,-42 -87,-61 0,-22 17,-27 42,-27 75,0 164,44 164,44 16,6 35,0 41,-12l71 -131c12,-19 -2,-37 -19,-48 -43,-27 -135,-60 -257,-60 -208,0 -301,104 -301,234 0,119 66,206 216,258 99,35 110,62 110,81 0,23 -17,35 -36,35 -83,0 -174,-50 -174,-50 -16,-8 -35,4 -41,15l-67 133c-10,18 0,29 13,41z"/>
   <path id="6" class="fil1" d="M6370 926c0,222 174,406 404,406 121,0 218,-43 285,-110 18,-18 14,-41 2,-56l-96 -116c-12,-14 -31,-14 -48,0 -31,23 -87,46 -135,46 -101,0 -143,-75 -149,-127l463 0c17,0 35,-14 37,-33 2,-14 4,-39 4,-52 0,-212 -170,-363 -367,-363 -228,0 -400,187 -400,405zm288 -108c8,-50 52,-90 104,-90 50,0 99,40 102,90l-206 0z"/>
   <g>
    <path class="fil2" d="M76 979l551 -554c102,-103 268,-103 370,0l551 554c102,102 102,270 0,373l-551 554c-102,102 -268,102 -370,0l-551 -554c-101,-103 -101,-271 0,-373z"/>
    <rect class="fil3" transform="matrix(3.99266 -4.01834 3.99266 4.01834 -108.812 1090.68)" width="231" height="231" rx="46" ry="46"/>
    <g>
     <path class="fil4" d="M750 1185c25,9 65,18 102,18 161,0 299,-103 299,-315 0,-173 -127,-316 -297,-316 -41,0 -76,9 -104,21l0 8 0 138 0 52c20,-16 45,-25 74,-25 69,0 121,54 121,123 0,68 -52,120 -121,120 -29,0 -54,-9 -74,-24l0 200zm-247 167l0 259c0,15 14,28 29,28l167 0c15,0 28,-13 28,-28l0 -259c-7,5 -16,8 -25,8l-173 0c-9,0 -18,-3 -26,-8z"/>
     <path class="fil5" d="M500 1312c0,15 14,29 29,29l173 0c15,0 28,-14 28,-29l0 -382 0 -191 0 -138c0,-74 26,-125 89,-125 30,0 59,14 78,24 12,6 30,0 35,-10l63 -125c6,-10 3,-27 -6,-35 -26,-24 -105,-57 -183,-57 -175,0 -306,118 -306,328l0 138 0 191 0 382z"/>
    </g>
   </g>
  </g>
 </g>
</svg>
